<?xml version="1.0" encoding="utf-8"?>
<!-- Generator: Adobe Illustrator 16.0.0, SVG Export Plug-In . SVG Version: 6.00 Build 0)  -->
<!DOCTYPE svg PUBLIC "-//W3C//DTD SVG 1.1//EN" "http://www.w3.org/Graphics/SVG/1.1/DTD/svg11.dtd">
<svg version="1.1" xmlns="http://www.w3.org/2000/svg" xmlns:xlink="http://www.w3.org/1999/xlink" x="0px" y="0px" width="486px"
	 height="486px" viewBox="-24.9 -34 486 486" enable-background="new -24.9 -34 486 486" xml:space="preserve">
<g id="Layer_2">
</g>
<g id="Layer_3">
	<g>
		<path fill="#333333" d="M100.4,399c-3.9,0-7.4-2.5-8.6-6.2L19.2,169.1c-1.2-3.7,0.1-7.8,3.3-10.1l190-138.3
			c1.6-1.2,3.5-1.7,5.3-1.7s3.7,0.6,5.3,1.7l190,138.3c3.2,2.3,4.5,6.4,3.3,10.1l-72.6,223.7c-1.2,3.7-4.7,6.2-8.6,6.2H100.4z"/>
		<path fill="#333333" d="M217.8,28l190,138.3L335.2,390H100.4L27.8,166.3L217.8,28 M217.8,9.9c-3.7,0-7.5,1.2-10.6,3.5l-190,138.3
			c-6.3,4.6-9,12.8-6.6,20.2l72.6,223.7c2.4,7.5,9.4,12.5,17.2,12.5h234.8c7.8,0,14.8-5,17.2-12.5L425,171.8
			c2.4-7.4-0.2-15.6-6.6-20.2l-190-138.3C225.3,11.1,221.5,9.9,217.8,9.9L217.8,9.9z"/>
	</g>
	<g id="Layer_1">
		<rect x="-24.9" y="-34" fill="#333333" width="486" height="486"/>
		<g>
			<g>
				<line fill="none" stroke="#111111" stroke-width="7" stroke-miterlimit="10" x1="624.5" y1="-471.1" x2="701" y2="-236"/>
				
					<linearGradient id="SVGID_2_" gradientUnits="userSpaceOnUse" x1="678.1719" y1="624.4199" x2="759.3281" y2="624.4199" gradientTransform="matrix(1 0 0 -1 -56 270.9004)">
					<stop  offset="0" style="stop-color:#FFB92E"/>
					<stop  offset="1" style="stop-color:#CC2541"/>
				</linearGradient>
				
					<line fill="none" stroke="url(#SVGID_2_)" stroke-width="5" stroke-miterlimit="10" x1="624.5" y1="-471.1" x2="701" y2="-236"/>
			</g>
			<g>
				<line fill="none" stroke="#111111" stroke-width="7" stroke-miterlimit="10" x1="1024.5" y1="-471.1" x2="947.3" y2="-236"/>
				
					<linearGradient id="SVGID_3_" gradientUnits="userSpaceOnUse" x1="1000.959" y1="624.4199" x2="1082.9248" y2="624.4199" gradientTransform="matrix(1 0 0 -1 -56 270.9004)">
					<stop  offset="0" style="stop-color:#CC25CC"/>
					<stop  offset="1" style="stop-color:#4125CC"/>
				</linearGradient>
				
					<line fill="none" stroke="url(#SVGID_3_)" stroke-width="5" stroke-miterlimit="10" x1="1024.5" y1="-471.1" x2="947.3" y2="-236"/>
			</g>
			<g>
				<line fill="none" stroke="#111111" stroke-width="7" stroke-miterlimit="10" x1="824.5" y1="-616.4" x2="1024.5" y2="-471.1"/>
				
					<linearGradient id="SVGID_4_" gradientUnits="userSpaceOnUse" x1="1082.0205" y1="814.6191" x2="879.0811" y2="814.6191" gradientTransform="matrix(1 0 0 -1 -56 270.9004)">
					<stop  offset="0" style="stop-color:#4125CC"/>
					<stop  offset="1" style="stop-color:#78CC25"/>
				</linearGradient>
				
					<line fill="none" stroke="url(#SVGID_4_)" stroke-width="5" stroke-miterlimit="10" x1="824.5" y1="-616.4" x2="1024.5" y2="-471.1"/>
			</g>
			<g>
				<line fill="none" stroke="#111111" stroke-width="7" stroke-miterlimit="10" x1="624.5" y1="-471.1" x2="824.5" y2="-616.4"/>
				
					<linearGradient id="SVGID_5_" gradientUnits="userSpaceOnUse" x1="679.0801" y1="814.6201" x2="882.0195" y2="814.6201" gradientTransform="matrix(1 0 0 -1 -56 270.9004)">
					<stop  offset="0" style="stop-color:#FFB92E"/>
					<stop  offset="1" style="stop-color:#78CC25"/>
				</linearGradient>
				
					<line fill="none" stroke="url(#SVGID_5_)" stroke-width="5" stroke-miterlimit="10" x1="624.5" y1="-471.1" x2="824.5" y2="-616.4"/>
			</g>
			<circle fill="#78CC25" stroke="#231F20" stroke-miterlimit="10" cx="824.8" cy="-616.4" r="17.5"/>
			<circle fill="#FFB92E" stroke="#231F20" stroke-miterlimit="10" cx="624.5" cy="-471.1" r="17.5"/>
			<circle fill="#301B97" stroke="#231F20" stroke-miterlimit="10" cx="1024.5" cy="-471.1" r="17.5"/>
			<g>
				<line fill="none" stroke="#111111" stroke-width="7" stroke-miterlimit="10" x1="701" y1="-236" x2="947.3" y2="-236"/>
				<linearGradient id="SVGID_6_" gradientUnits="userSpaceOnUse" x1="700.9502" y1="-235.9692" x2="947.334" y2="-235.9692">
					<stop  offset="0" style="stop-color:#CC2541"/>
					<stop  offset="1" style="stop-color:#CC25CC"/>
				</linearGradient>
				<line fill="none" stroke="url(#SVGID_6_)" stroke-width="5" stroke-miterlimit="10" x1="701" y1="-236" x2="947.3" y2="-236"/>
			</g>
			<circle fill="#CC25CC" stroke="#231F20" stroke-miterlimit="10" cx="947.3" cy="-236" r="17.5"/>
			<circle fill="#CC2541" stroke="#231F20" stroke-miterlimit="10" cx="701" cy="-236" r="17.5"/>
		</g>
		<g>
			<g>
				<line fill="none" stroke="#111111" stroke-width="7" stroke-miterlimit="10" x1="51.4" y1="-236.4" x2="127.7" y2="-471.5"/>
				
					<linearGradient id="SVGID_7_" gradientUnits="userSpaceOnUse" x1="693.6006" y1="-307.7715" x2="774.7559" y2="-307.7715" gradientTransform="matrix(-0.809 -0.5878 -0.5878 0.809 502.6071 326.5351)">
					<stop  offset="0" style="stop-color:#FFB92E"/>
					<stop  offset="1" style="stop-color:#CC2541"/>
				</linearGradient>
				
					<line fill="none" stroke="url(#SVGID_7_)" stroke-width="5" stroke-miterlimit="10" x1="51.4" y1="-236.4" x2="127.7" y2="-471.5"/>
			</g>
			<g>
				<line fill="none" stroke="#111111" stroke-width="7" stroke-miterlimit="10" x1="-272.2" y1="-471.6" x2="-71.6" y2="-616.4"/>
				
					<linearGradient id="SVGID_8_" gradientUnits="userSpaceOnUse" x1="1016.3867" y1="-307.7715" x2="1098.3516" y2="-307.7715" gradientTransform="matrix(-0.809 -0.5878 -0.5878 0.809 502.6071 326.5351)">
					<stop  offset="0" style="stop-color:#CC25CC"/>
					<stop  offset="1" style="stop-color:#4125CC"/>
				</linearGradient>
				
					<line fill="none" stroke="url(#SVGID_8_)" stroke-width="5" stroke-miterlimit="10" x1="-272.2" y1="-471.6" x2="-71.6" y2="-616.4"/>
			</g>
			<g>
				<line fill="none" stroke="#111111" stroke-width="7" stroke-miterlimit="10" x1="-195.9" y1="-236.4" x2="-272.2" y2="-471.6"/>
				
					<linearGradient id="SVGID_9_" gradientUnits="userSpaceOnUse" x1="1097.4473" y1="-117.5703" x2="894.5078" y2="-117.5703" gradientTransform="matrix(-0.809 -0.5878 -0.5878 0.809 502.6071 326.5351)">
					<stop  offset="0" style="stop-color:#4125CC"/>
					<stop  offset="1" style="stop-color:#78CC25"/>
				</linearGradient>
				
					<line fill="none" stroke="url(#SVGID_9_)" stroke-width="5" stroke-miterlimit="10" x1="-195.9" y1="-236.4" x2="-272.2" y2="-471.6"/>
			</g>
			<g>
				<line fill="none" stroke="#111111" stroke-width="7" stroke-miterlimit="10" x1="51.4" y1="-236.4" x2="-195.9" y2="-236.4"/>
				
					<linearGradient id="SVGID_10_" gradientUnits="userSpaceOnUse" x1="694.5068" y1="-117.5703" x2="897.4473" y2="-117.5703" gradientTransform="matrix(-0.809 -0.5878 -0.5878 0.809 502.6071 326.5351)">
					<stop  offset="0" style="stop-color:#FFB92E"/>
					<stop  offset="1" style="stop-color:#78CC25"/>
				</linearGradient>
				
					<line fill="none" stroke="url(#SVGID_10_)" stroke-width="5" stroke-miterlimit="10" x1="51.4" y1="-236.4" x2="-195.9" y2="-236.4"/>
			</g>
			<circle fill="#78CC25" stroke="#231F20" stroke-miterlimit="10" cx="-196" cy="-236.6" r="17.5"/>
			<circle fill="#FFB92E" stroke="#231F20" stroke-miterlimit="10" cx="51.4" cy="-236.4" r="17.5"/>
			<circle fill="#301B97" stroke="#231F20" stroke-miterlimit="10" cx="-272.2" cy="-471.6" r="17.5"/>
			<g>
				<line fill="none" stroke="#111111" stroke-width="7" stroke-miterlimit="10" x1="127.7" y1="-471.5" x2="-71.6" y2="-616.4"/>
				
					<linearGradient id="SVGID_11_" gradientUnits="userSpaceOnUse" x1="716.376" y1="696.2217" x2="962.7598" y2="696.2217" gradientTransform="matrix(-0.809 -0.5878 0.5878 -0.809 298.0692 512.7816)">
					<stop  offset="0" style="stop-color:#CC2541"/>
					<stop  offset="1" style="stop-color:#CC25CC"/>
				</linearGradient>
				
					<line fill="none" stroke="url(#SVGID_11_)" stroke-width="5" stroke-miterlimit="10" x1="127.7" y1="-471.5" x2="-71.6" y2="-616.4"/>
			</g>
			<circle fill="#CC25CC" stroke="#231F20" stroke-miterlimit="10" cx="-71.6" cy="-616.4" r="17.5"/>
			<circle fill="#CC2541" stroke="#231F20" stroke-miterlimit="10" cx="127.7" cy="-471.5" r="17.5"/>
		</g>
		<g>
			<g>
				<line fill="none" stroke="#111111" stroke-width="7" stroke-miterlimit="10" x1="-318.5" y1="-471.1" x2="-518.5" y2="-616.4"/>
				
					<linearGradient id="SVGID_12_" gradientUnits="userSpaceOnUse" x1="364.9053" y1="-955.4922" x2="446.0615" y2="-955.4922" gradientTransform="matrix(-0.809 0.5878 0.5878 0.809 471.1307 -9.0512)">
					<stop  offset="0" style="stop-color:#FFB92E"/>
					<stop  offset="1" style="stop-color:#CC2541"/>
				</linearGradient>
				
					<line fill="none" stroke="url(#SVGID_12_)" stroke-width="5" stroke-miterlimit="10" x1="-318.5" y1="-471.1" x2="-518.5" y2="-616.4"/>
			</g>
			<g>
				<line fill="none" stroke="#111111" stroke-width="7" stroke-miterlimit="10" x1="-642.1" y1="-236" x2="-717.9" y2="-471.5"/>
				
					<linearGradient id="SVGID_13_" gradientUnits="userSpaceOnUse" x1="687.6924" y1="-955.4907" x2="769.6592" y2="-955.4907" gradientTransform="matrix(-0.809 0.5878 0.5878 0.809 471.1307 -9.0512)">
					<stop  offset="0" style="stop-color:#CC25CC"/>
					<stop  offset="1" style="stop-color:#4125CC"/>
				</linearGradient>
				
					<line fill="none" stroke="url(#SVGID_13_)" stroke-width="5" stroke-miterlimit="10" x1="-642.1" y1="-236" x2="-717.9" y2="-471.5"/>
			</g>
			<g>
				<line fill="none" stroke="#111111" stroke-width="7" stroke-miterlimit="10" x1="-394.9" y1="-236" x2="-642.1" y2="-236"/>
				
					<linearGradient id="SVGID_14_" gradientUnits="userSpaceOnUse" x1="768.7539" y1="-765.291" x2="565.8145" y2="-765.291" gradientTransform="matrix(-0.809 0.5878 0.5878 0.809 471.1307 -9.0512)">
					<stop  offset="0" style="stop-color:#4125CC"/>
					<stop  offset="1" style="stop-color:#78CC25"/>
				</linearGradient>
				
					<line fill="none" stroke="url(#SVGID_14_)" stroke-width="5" stroke-miterlimit="10" x1="-394.9" y1="-236" x2="-642.1" y2="-236"/>
			</g>
			<g>
				<line fill="none" stroke="#111111" stroke-width="7" stroke-miterlimit="10" x1="-318.5" y1="-471.1" x2="-394.9" y2="-236"/>
				
					<linearGradient id="SVGID_15_" gradientUnits="userSpaceOnUse" x1="365.8115" y1="-765.291" x2="568.7529" y2="-765.291" gradientTransform="matrix(-0.809 0.5878 0.5878 0.809 471.1307 -9.0512)">
					<stop  offset="0" style="stop-color:#FFB92E"/>
					<stop  offset="1" style="stop-color:#78CC25"/>
				</linearGradient>
				
					<line fill="none" stroke="url(#SVGID_15_)" stroke-width="5" stroke-miterlimit="10" x1="-318.5" y1="-471.1" x2="-394.9" y2="-236"/>
			</g>
			<circle fill="#78CC25" stroke="#231F20" stroke-miterlimit="10" cx="-395.1" cy="-235.9" r="17.5"/>
			<circle fill="#FFB92E" stroke="#231F20" stroke-miterlimit="10" cx="-318.5" cy="-471.1" r="17.5"/>
			<circle fill="#301B97" stroke="#231F20" stroke-miterlimit="10" cx="-642.1" cy="-236" r="17.5"/>
			<g>
				<line fill="none" stroke="#111111" stroke-width="7" stroke-miterlimit="10" x1="-518.5" y1="-616.4" x2="-717.9" y2="-471.5"/>
				
					<linearGradient id="SVGID_16_" gradientUnits="userSpaceOnUse" x1="387.6875" y1="1343.9404" x2="634.0713" y2="1343.9404" gradientTransform="matrix(-0.809 0.5878 -0.5878 -0.809 585.0602 243.0259)">
					<stop  offset="0" style="stop-color:#CC2541"/>
					<stop  offset="1" style="stop-color:#CC25CC"/>
				</linearGradient>
				
					<line fill="none" stroke="url(#SVGID_16_)" stroke-width="5" stroke-miterlimit="10" x1="-518.5" y1="-616.4" x2="-717.9" y2="-471.5"/>
			</g>
			<circle fill="#CC25CC" stroke="#231F20" stroke-miterlimit="10" cx="-717.9" cy="-471.5" r="17.5"/>
			<circle fill="#CC2541" stroke="#231F20" stroke-miterlimit="10" cx="-518.5" cy="-616.4" r="17.5"/>
		</g>
		<g>
			<g>
				
					<line fill="none" stroke="#111111" stroke-width="7" stroke-miterlimit="10" x1="-989.8" y1="-616.4" x2="-1189.7" y2="-471.1"/>
				
					<linearGradient id="SVGID_17_" gradientUnits="userSpaceOnUse" x1="-876.0454" y1="-1051.7808" x2="-794.8882" y2="-1051.7808" gradientTransform="matrix(0.309 0.9511 0.9511 -0.309 168.7336 -74.1516)">
					<stop  offset="0" style="stop-color:#FFB92E"/>
					<stop  offset="1" style="stop-color:#CC2541"/>
				</linearGradient>
				
					<line fill="none" stroke="url(#SVGID_17_)" stroke-width="5" stroke-miterlimit="10" x1="-989.8" y1="-616.4" x2="-1189.7" y2="-471.1"/>
			</g>
			<g>
				
					<line fill="none" stroke="#111111" stroke-width="7" stroke-miterlimit="10" x1="-866.1" y1="-235.9" x2="-1113.6" y2="-236.7"/>
				
					<linearGradient id="SVGID_18_" gradientUnits="userSpaceOnUse" x1="-553.2578" y1="-1051.7798" x2="-471.292" y2="-1051.7798" gradientTransform="matrix(0.309 0.9511 0.9511 -0.309 168.7336 -74.1516)">
					<stop  offset="0" style="stop-color:#CC25CC"/>
					<stop  offset="1" style="stop-color:#4125CC"/>
				</linearGradient>
				
					<line fill="none" stroke="url(#SVGID_18_)" stroke-width="5" stroke-miterlimit="10" x1="-866.1" y1="-235.9" x2="-1113.6" y2="-236.7"/>
			</g>
			<g>
				<line fill="none" stroke="#111111" stroke-width="7" stroke-miterlimit="10" x1="-789.8" y1="-471.1" x2="-866.1" y2="-235.9"/>
				
					<linearGradient id="SVGID_19_" gradientUnits="userSpaceOnUse" x1="-472.1963" y1="-861.5796" x2="-675.1357" y2="-861.5796" gradientTransform="matrix(0.309 0.9511 0.9511 -0.309 168.7336 -74.1516)">
					<stop  offset="0" style="stop-color:#4125CC"/>
					<stop  offset="1" style="stop-color:#78CC25"/>
				</linearGradient>
				
					<line fill="none" stroke="url(#SVGID_19_)" stroke-width="5" stroke-miterlimit="10" x1="-789.8" y1="-471.1" x2="-866.1" y2="-235.9"/>
			</g>
			<g>
				<line fill="none" stroke="#111111" stroke-width="7" stroke-miterlimit="10" x1="-989.8" y1="-616.4" x2="-789.8" y2="-471.1"/>
				
					<linearGradient id="SVGID_20_" gradientUnits="userSpaceOnUse" x1="-875.1372" y1="-861.5801" x2="-672.1978" y2="-861.5801" gradientTransform="matrix(0.309 0.9511 0.9511 -0.309 168.7336 -74.1516)">
					<stop  offset="0" style="stop-color:#FFB92E"/>
					<stop  offset="1" style="stop-color:#78CC25"/>
				</linearGradient>
				
					<line fill="none" stroke="url(#SVGID_20_)" stroke-width="5" stroke-miterlimit="10" x1="-989.8" y1="-616.4" x2="-789.8" y2="-471.1"/>
			</g>
			<circle fill="#78CC25" stroke="#231F20" stroke-miterlimit="10" cx="-789.7" cy="-470.9" r="17.5"/>
			<circle fill="#FFB92E" stroke="#231F20" stroke-miterlimit="10" cx="-989.8" cy="-616.4" r="17.5"/>
			<circle fill="#301B97" stroke="#231F20" stroke-miterlimit="10" cx="-866.1" cy="-235.9" r="17.5"/>
			<g>
				
					<line fill="none" stroke="#111111" stroke-width="7" stroke-miterlimit="10" x1="-1189.7" y1="-471.1" x2="-1113.6" y2="-236.7"/>
				
					<linearGradient id="SVGID_21_" gradientUnits="userSpaceOnUse" x1="-853.2607" y1="1440.2256" x2="-606.8779" y2="1440.2256" gradientTransform="matrix(0.309 0.9511 -0.9511 0.309 443.6732 -104.6076)">
					<stop  offset="0" style="stop-color:#CC2541"/>
					<stop  offset="1" style="stop-color:#CC25CC"/>
				</linearGradient>
				
					<line fill="none" stroke="url(#SVGID_21_)" stroke-width="5" stroke-miterlimit="10" x1="-1189.7" y1="-471.1" x2="-1113.6" y2="-236.7"/>
			</g>
			<circle fill="#CC25CC" stroke="#231F20" stroke-miterlimit="10" cx="-1113.6" cy="-236.7" r="17.5"/>
			<circle fill="#CC2541" stroke="#231F20" stroke-miterlimit="10" cx="-1189.7" cy="-471.1" r="17.5"/>
		</g>
		<g>
			<linearGradient id="SVGID_22_" gradientUnits="userSpaceOnUse" x1="108.2217" y1="352.3945" x2="367.2178" y2="93.3984">
				<stop  offset="0" style="stop-color:#0077FF"/>
				<stop  offset="1" style="stop-color:#4125CC"/>
			</linearGradient>
			<polygon fill="none" stroke="url(#SVGID_22_)" stroke-width="28" stroke-linejoin="round" stroke-miterlimit="10" points="
				218,398.2 218.1,280.8 218.1,280.8 56.4,280.8 18.2,163.1 218.2,17.8 417.9,163.9 341.8,398.2 			"/>
		</g>
		<linearGradient id="SVGID_23_" gradientUnits="userSpaceOnUse" x1="199.4053" y1="213.376" x2="308.5676" y2="276.4009">
			<stop  offset="0" style="stop-color:#0077FF"/>
			<stop  offset="1" style="stop-color:#4125CC"/>
		</linearGradient>
		
			<rect x="218.1" y="209" fill="none" stroke="url(#SVGID_23_)" stroke-width="28" stroke-linecap="round" stroke-linejoin="round" stroke-miterlimit="10" width="71.8" height="71.8"/>
	</g>
</g>
</svg>
