<?xml version="1.0" encoding="utf-8"?>
<!-- Generator: Adobe Illustrator 16.0.0, SVG Export Plug-In . SVG Version: 6.00 Build 0)  -->
<!DOCTYPE svg PUBLIC "-//W3C//DTD SVG 1.1//EN" "http://www.w3.org/Graphics/SVG/1.1/DTD/svg11.dtd">
<svg version="1.1" xmlns="http://www.w3.org/2000/svg" xmlns:xlink="http://www.w3.org/1999/xlink" x="0px" y="0px" width="477px"
	 height="458.2px" viewBox="-20.5 -21.1 477 458.2" enable-background="new -20.5 -21.1 477 458.2" xml:space="preserve">
<g id="Layer_2">
</g>
<g id="Layer_3">
	<g id="Layer_1">
		<g>
			<g>
				<line fill="none" stroke="#111111" stroke-width="7" stroke-miterlimit="10" x1="624.5" y1="-471.1" x2="701" y2="-236"/>
				
					<linearGradient id="SVGID_1_" gradientUnits="userSpaceOnUse" x1="678.1719" y1="624.4199" x2="759.3281" y2="624.4199" gradientTransform="matrix(1 0 0 -1 -56 270.9004)">
					<stop  offset="0" style="stop-color:#FFB92E"/>
					<stop  offset="1" style="stop-color:#CC2541"/>
				</linearGradient>
				
					<line fill="none" stroke="url(#SVGID_1_)" stroke-width="5" stroke-miterlimit="10" x1="624.5" y1="-471.1" x2="701" y2="-236"/>
			</g>
			<g>
				<line fill="none" stroke="#111111" stroke-width="7" stroke-miterlimit="10" x1="1024.5" y1="-471.1" x2="947.3" y2="-236"/>
				
					<linearGradient id="SVGID_2_" gradientUnits="userSpaceOnUse" x1="1000.959" y1="624.4199" x2="1082.9248" y2="624.4199" gradientTransform="matrix(1 0 0 -1 -56 270.9004)">
					<stop  offset="0" style="stop-color:#CC25CC"/>
					<stop  offset="1" style="stop-color:#4125CC"/>
				</linearGradient>
				
					<line fill="none" stroke="url(#SVGID_2_)" stroke-width="5" stroke-miterlimit="10" x1="1024.5" y1="-471.1" x2="947.3" y2="-236"/>
			</g>
			<g>
				<line fill="none" stroke="#111111" stroke-width="7" stroke-miterlimit="10" x1="824.5" y1="-616.4" x2="1024.5" y2="-471.1"/>
				
					<linearGradient id="SVGID_3_" gradientUnits="userSpaceOnUse" x1="1082.0205" y1="814.6191" x2="879.0811" y2="814.6191" gradientTransform="matrix(1 0 0 -1 -56 270.9004)">
					<stop  offset="0" style="stop-color:#4125CC"/>
					<stop  offset="1" style="stop-color:#78CC25"/>
				</linearGradient>
				
					<line fill="none" stroke="url(#SVGID_3_)" stroke-width="5" stroke-miterlimit="10" x1="824.5" y1="-616.4" x2="1024.5" y2="-471.1"/>
			</g>
			<g>
				<line fill="none" stroke="#111111" stroke-width="7" stroke-miterlimit="10" x1="624.5" y1="-471.1" x2="824.5" y2="-616.4"/>
				
					<linearGradient id="SVGID_4_" gradientUnits="userSpaceOnUse" x1="679.0801" y1="814.6201" x2="882.0195" y2="814.6201" gradientTransform="matrix(1 0 0 -1 -56 270.9004)">
					<stop  offset="0" style="stop-color:#FFB92E"/>
					<stop  offset="1" style="stop-color:#78CC25"/>
				</linearGradient>
				
					<line fill="none" stroke="url(#SVGID_4_)" stroke-width="5" stroke-miterlimit="10" x1="624.5" y1="-471.1" x2="824.5" y2="-616.4"/>
			</g>
			<circle fill="#78CC25" stroke="#231F20" stroke-miterlimit="10" cx="824.8" cy="-616.4" r="17.5"/>
			<circle fill="#FFB92E" stroke="#231F20" stroke-miterlimit="10" cx="624.5" cy="-471.1" r="17.5"/>
			<circle fill="#301B97" stroke="#231F20" stroke-miterlimit="10" cx="1024.5" cy="-471.1" r="17.5"/>
			<g>
				<line fill="none" stroke="#111111" stroke-width="7" stroke-miterlimit="10" x1="701" y1="-236" x2="947.3" y2="-236"/>
				<linearGradient id="SVGID_5_" gradientUnits="userSpaceOnUse" x1="700.9502" y1="-235.9692" x2="947.334" y2="-235.9692">
					<stop  offset="0" style="stop-color:#CC2541"/>
					<stop  offset="1" style="stop-color:#CC25CC"/>
				</linearGradient>
				<line fill="none" stroke="url(#SVGID_5_)" stroke-width="5" stroke-miterlimit="10" x1="701" y1="-236" x2="947.3" y2="-236"/>
			</g>
			<circle fill="#CC25CC" stroke="#231F20" stroke-miterlimit="10" cx="947.3" cy="-236" r="17.5"/>
			<circle fill="#CC2541" stroke="#231F20" stroke-miterlimit="10" cx="701" cy="-236" r="17.5"/>
		</g>
		<g>
			<g>
				<line fill="none" stroke="#111111" stroke-width="7" stroke-miterlimit="10" x1="51.4" y1="-236.4" x2="127.7" y2="-471.5"/>
				
					<linearGradient id="SVGID_6_" gradientUnits="userSpaceOnUse" x1="693.6006" y1="-307.7715" x2="774.7559" y2="-307.7715" gradientTransform="matrix(-0.809 -0.5878 -0.5878 0.809 502.6071 326.5351)">
					<stop  offset="0" style="stop-color:#FFB92E"/>
					<stop  offset="1" style="stop-color:#CC2541"/>
				</linearGradient>
				
					<line fill="none" stroke="url(#SVGID_6_)" stroke-width="5" stroke-miterlimit="10" x1="51.4" y1="-236.4" x2="127.7" y2="-471.5"/>
			</g>
			<g>
				<line fill="none" stroke="#111111" stroke-width="7" stroke-miterlimit="10" x1="-272.2" y1="-471.6" x2="-71.6" y2="-616.4"/>
				
					<linearGradient id="SVGID_7_" gradientUnits="userSpaceOnUse" x1="1016.3867" y1="-307.7715" x2="1098.3516" y2="-307.7715" gradientTransform="matrix(-0.809 -0.5878 -0.5878 0.809 502.6071 326.5351)">
					<stop  offset="0" style="stop-color:#CC25CC"/>
					<stop  offset="1" style="stop-color:#4125CC"/>
				</linearGradient>
				
					<line fill="none" stroke="url(#SVGID_7_)" stroke-width="5" stroke-miterlimit="10" x1="-272.2" y1="-471.6" x2="-71.6" y2="-616.4"/>
			</g>
			<g>
				<line fill="none" stroke="#111111" stroke-width="7" stroke-miterlimit="10" x1="-195.9" y1="-236.4" x2="-272.2" y2="-471.6"/>
				
					<linearGradient id="SVGID_8_" gradientUnits="userSpaceOnUse" x1="1097.4473" y1="-117.5703" x2="894.5078" y2="-117.5703" gradientTransform="matrix(-0.809 -0.5878 -0.5878 0.809 502.6071 326.5351)">
					<stop  offset="0" style="stop-color:#4125CC"/>
					<stop  offset="1" style="stop-color:#78CC25"/>
				</linearGradient>
				
					<line fill="none" stroke="url(#SVGID_8_)" stroke-width="5" stroke-miterlimit="10" x1="-195.9" y1="-236.4" x2="-272.2" y2="-471.6"/>
			</g>
			<g>
				<line fill="none" stroke="#111111" stroke-width="7" stroke-miterlimit="10" x1="51.4" y1="-236.4" x2="-195.9" y2="-236.4"/>
				
					<linearGradient id="SVGID_9_" gradientUnits="userSpaceOnUse" x1="694.5068" y1="-117.5703" x2="897.4473" y2="-117.5703" gradientTransform="matrix(-0.809 -0.5878 -0.5878 0.809 502.6071 326.5351)">
					<stop  offset="0" style="stop-color:#FFB92E"/>
					<stop  offset="1" style="stop-color:#78CC25"/>
				</linearGradient>
				
					<line fill="none" stroke="url(#SVGID_9_)" stroke-width="5" stroke-miterlimit="10" x1="51.4" y1="-236.4" x2="-195.9" y2="-236.4"/>
			</g>
			<circle fill="#78CC25" stroke="#231F20" stroke-miterlimit="10" cx="-196" cy="-236.6" r="17.5"/>
			<circle fill="#FFB92E" stroke="#231F20" stroke-miterlimit="10" cx="51.4" cy="-236.4" r="17.5"/>
			<circle fill="#301B97" stroke="#231F20" stroke-miterlimit="10" cx="-272.2" cy="-471.6" r="17.5"/>
			<g>
				<line fill="none" stroke="#111111" stroke-width="7" stroke-miterlimit="10" x1="127.7" y1="-471.5" x2="-71.6" y2="-616.4"/>
				
					<linearGradient id="SVGID_10_" gradientUnits="userSpaceOnUse" x1="716.376" y1="696.2217" x2="962.7598" y2="696.2217" gradientTransform="matrix(-0.809 -0.5878 0.5878 -0.809 298.0692 512.7816)">
					<stop  offset="0" style="stop-color:#CC2541"/>
					<stop  offset="1" style="stop-color:#CC25CC"/>
				</linearGradient>
				
					<line fill="none" stroke="url(#SVGID_10_)" stroke-width="5" stroke-miterlimit="10" x1="127.7" y1="-471.5" x2="-71.6" y2="-616.4"/>
			</g>
			<circle fill="#CC25CC" stroke="#231F20" stroke-miterlimit="10" cx="-71.6" cy="-616.4" r="17.5"/>
			<circle fill="#CC2541" stroke="#231F20" stroke-miterlimit="10" cx="127.7" cy="-471.5" r="17.5"/>
		</g>
		<g>
			<g>
				<line fill="none" stroke="#111111" stroke-width="7" stroke-miterlimit="10" x1="-318.5" y1="-471.1" x2="-518.5" y2="-616.4"/>
				
					<linearGradient id="SVGID_11_" gradientUnits="userSpaceOnUse" x1="364.9053" y1="-955.4922" x2="446.0615" y2="-955.4922" gradientTransform="matrix(-0.809 0.5878 0.5878 0.809 471.1307 -9.0512)">
					<stop  offset="0" style="stop-color:#FFB92E"/>
					<stop  offset="1" style="stop-color:#CC2541"/>
				</linearGradient>
				
					<line fill="none" stroke="url(#SVGID_11_)" stroke-width="5" stroke-miterlimit="10" x1="-318.5" y1="-471.1" x2="-518.5" y2="-616.4"/>
			</g>
			<g>
				<line fill="none" stroke="#111111" stroke-width="7" stroke-miterlimit="10" x1="-642.1" y1="-236" x2="-717.9" y2="-471.5"/>
				
					<linearGradient id="SVGID_12_" gradientUnits="userSpaceOnUse" x1="687.6924" y1="-955.4907" x2="769.6592" y2="-955.4907" gradientTransform="matrix(-0.809 0.5878 0.5878 0.809 471.1307 -9.0512)">
					<stop  offset="0" style="stop-color:#CC25CC"/>
					<stop  offset="1" style="stop-color:#4125CC"/>
				</linearGradient>
				
					<line fill="none" stroke="url(#SVGID_12_)" stroke-width="5" stroke-miterlimit="10" x1="-642.1" y1="-236" x2="-717.9" y2="-471.5"/>
			</g>
			<g>
				<line fill="none" stroke="#111111" stroke-width="7" stroke-miterlimit="10" x1="-394.9" y1="-236" x2="-642.1" y2="-236"/>
				
					<linearGradient id="SVGID_13_" gradientUnits="userSpaceOnUse" x1="768.7539" y1="-765.291" x2="565.8145" y2="-765.291" gradientTransform="matrix(-0.809 0.5878 0.5878 0.809 471.1307 -9.0512)">
					<stop  offset="0" style="stop-color:#4125CC"/>
					<stop  offset="1" style="stop-color:#78CC25"/>
				</linearGradient>
				
					<line fill="none" stroke="url(#SVGID_13_)" stroke-width="5" stroke-miterlimit="10" x1="-394.9" y1="-236" x2="-642.1" y2="-236"/>
			</g>
			<g>
				<line fill="none" stroke="#111111" stroke-width="7" stroke-miterlimit="10" x1="-318.5" y1="-471.1" x2="-394.9" y2="-236"/>
				
					<linearGradient id="SVGID_14_" gradientUnits="userSpaceOnUse" x1="365.8115" y1="-765.291" x2="568.7529" y2="-765.291" gradientTransform="matrix(-0.809 0.5878 0.5878 0.809 471.1307 -9.0512)">
					<stop  offset="0" style="stop-color:#FFB92E"/>
					<stop  offset="1" style="stop-color:#78CC25"/>
				</linearGradient>
				
					<line fill="none" stroke="url(#SVGID_14_)" stroke-width="5" stroke-miterlimit="10" x1="-318.5" y1="-471.1" x2="-394.9" y2="-236"/>
			</g>
			<circle fill="#78CC25" stroke="#231F20" stroke-miterlimit="10" cx="-395.1" cy="-235.9" r="17.5"/>
			<circle fill="#FFB92E" stroke="#231F20" stroke-miterlimit="10" cx="-318.5" cy="-471.1" r="17.5"/>
			<circle fill="#301B97" stroke="#231F20" stroke-miterlimit="10" cx="-642.1" cy="-236" r="17.5"/>
			<g>
				<line fill="none" stroke="#111111" stroke-width="7" stroke-miterlimit="10" x1="-518.5" y1="-616.4" x2="-717.9" y2="-471.5"/>
				
					<linearGradient id="SVGID_15_" gradientUnits="userSpaceOnUse" x1="387.6875" y1="1343.9404" x2="634.0713" y2="1343.9404" gradientTransform="matrix(-0.809 0.5878 -0.5878 -0.809 585.0602 243.0259)">
					<stop  offset="0" style="stop-color:#CC2541"/>
					<stop  offset="1" style="stop-color:#CC25CC"/>
				</linearGradient>
				
					<line fill="none" stroke="url(#SVGID_15_)" stroke-width="5" stroke-miterlimit="10" x1="-518.5" y1="-616.4" x2="-717.9" y2="-471.5"/>
			</g>
			<circle fill="#CC25CC" stroke="#231F20" stroke-miterlimit="10" cx="-717.9" cy="-471.5" r="17.5"/>
			<circle fill="#CC2541" stroke="#231F20" stroke-miterlimit="10" cx="-518.5" cy="-616.4" r="17.5"/>
		</g>
		<g>
			<g>
				
					<line fill="none" stroke="#111111" stroke-width="7" stroke-miterlimit="10" x1="-989.8" y1="-616.4" x2="-1189.7" y2="-471.1"/>
				
					<linearGradient id="SVGID_16_" gradientUnits="userSpaceOnUse" x1="-876.0454" y1="-1051.7808" x2="-794.8882" y2="-1051.7808" gradientTransform="matrix(0.309 0.9511 0.9511 -0.309 168.7336 -74.1516)">
					<stop  offset="0" style="stop-color:#FFB92E"/>
					<stop  offset="1" style="stop-color:#CC2541"/>
				</linearGradient>
				
					<line fill="none" stroke="url(#SVGID_16_)" stroke-width="5" stroke-miterlimit="10" x1="-989.8" y1="-616.4" x2="-1189.7" y2="-471.1"/>
			</g>
			<g>
				
					<line fill="none" stroke="#111111" stroke-width="7" stroke-miterlimit="10" x1="-866.1" y1="-235.9" x2="-1113.6" y2="-236.7"/>
				
					<linearGradient id="SVGID_17_" gradientUnits="userSpaceOnUse" x1="-553.2578" y1="-1051.7798" x2="-471.292" y2="-1051.7798" gradientTransform="matrix(0.309 0.9511 0.9511 -0.309 168.7336 -74.1516)">
					<stop  offset="0" style="stop-color:#CC25CC"/>
					<stop  offset="1" style="stop-color:#4125CC"/>
				</linearGradient>
				
					<line fill="none" stroke="url(#SVGID_17_)" stroke-width="5" stroke-miterlimit="10" x1="-866.1" y1="-235.9" x2="-1113.6" y2="-236.7"/>
			</g>
			<g>
				<line fill="none" stroke="#111111" stroke-width="7" stroke-miterlimit="10" x1="-789.8" y1="-471.1" x2="-866.1" y2="-235.9"/>
				
					<linearGradient id="SVGID_18_" gradientUnits="userSpaceOnUse" x1="-472.1963" y1="-861.5796" x2="-675.1357" y2="-861.5796" gradientTransform="matrix(0.309 0.9511 0.9511 -0.309 168.7336 -74.1516)">
					<stop  offset="0" style="stop-color:#4125CC"/>
					<stop  offset="1" style="stop-color:#78CC25"/>
				</linearGradient>
				
					<line fill="none" stroke="url(#SVGID_18_)" stroke-width="5" stroke-miterlimit="10" x1="-789.8" y1="-471.1" x2="-866.1" y2="-235.9"/>
			</g>
			<g>
				<line fill="none" stroke="#111111" stroke-width="7" stroke-miterlimit="10" x1="-989.8" y1="-616.4" x2="-789.8" y2="-471.1"/>
				
					<linearGradient id="SVGID_19_" gradientUnits="userSpaceOnUse" x1="-875.1372" y1="-861.5801" x2="-672.1978" y2="-861.5801" gradientTransform="matrix(0.309 0.9511 0.9511 -0.309 168.7336 -74.1516)">
					<stop  offset="0" style="stop-color:#FFB92E"/>
					<stop  offset="1" style="stop-color:#78CC25"/>
				</linearGradient>
				
					<line fill="none" stroke="url(#SVGID_19_)" stroke-width="5" stroke-miterlimit="10" x1="-989.8" y1="-616.4" x2="-789.8" y2="-471.1"/>
			</g>
			<circle fill="#78CC25" stroke="#231F20" stroke-miterlimit="10" cx="-789.7" cy="-470.9" r="17.5"/>
			<circle fill="#FFB92E" stroke="#231F20" stroke-miterlimit="10" cx="-989.8" cy="-616.4" r="17.5"/>
			<circle fill="#301B97" stroke="#231F20" stroke-miterlimit="10" cx="-866.1" cy="-235.9" r="17.5"/>
			<g>
				
					<line fill="none" stroke="#111111" stroke-width="7" stroke-miterlimit="10" x1="-1189.7" y1="-471.1" x2="-1113.6" y2="-236.7"/>
				
					<linearGradient id="SVGID_20_" gradientUnits="userSpaceOnUse" x1="-853.2607" y1="1440.2256" x2="-606.8779" y2="1440.2256" gradientTransform="matrix(0.309 0.9511 -0.9511 0.309 443.6732 -104.6076)">
					<stop  offset="0" style="stop-color:#CC2541"/>
					<stop  offset="1" style="stop-color:#CC25CC"/>
				</linearGradient>
				
					<line fill="none" stroke="url(#SVGID_20_)" stroke-width="5" stroke-miterlimit="10" x1="-1189.7" y1="-471.1" x2="-1113.6" y2="-236.7"/>
			</g>
			<circle fill="#CC25CC" stroke="#231F20" stroke-miterlimit="10" cx="-1113.6" cy="-236.7" r="17.5"/>
			<circle fill="#CC2541" stroke="#231F20" stroke-miterlimit="10" cx="-1189.7" cy="-471.1" r="17.5"/>
		</g>
	</g>
	<g>
		<polygon fill="#333333" points="95.4,397.1 19.5,163.4 218,18.9 416.5,163.4 340.7,397.1 		"/>
		<linearGradient id="SVGID_21_" gradientUnits="userSpaceOnUse" x1="-3.9683" y1="205.6299" x2="440.0352" y2="205.6299">
			<stop  offset="0" style="stop-color:#0077FF"/>
			<stop  offset="1" style="stop-color:#4125CC"/>
		</linearGradient>
		<path fill="url(#SVGID_21_)" d="M218,18.9l198.5,144.5l-75.8,233.7H95.4L19.5,163.4L218,18.9 M218-5.8l-11.8,8.6L7.8,147.2
			L-4,155.7l4.5,13.8l75.8,233.7l4.5,13.8h14.5h245.4h14.5l4.5-13.8l75.8-233.7l4.5-13.8l-11.7-8.5L229.8,2.7L218-5.8L218-5.8z"/>
	</g>
	<g id="thinking">
		<g>
			<linearGradient id="SVGID_22_" gradientUnits="userSpaceOnUse" x1="111.5723" y1="165.4263" x2="329.2998" y2="291.1314">
				<stop  offset="0" style="stop-color:#0077FF"/>
				<stop  offset="1" style="stop-color:#4125CC"/>
			</linearGradient>
			<path fill="url(#SVGID_22_)" d="M324.6,194.3c1.9-5,2.9-10.2,2.9-15.6c0-23.6-19.2-42.8-42.8-42.8l-0.4,0c-0.7,0-1.3-0.4-1.5-1.1
				c-5.3-17.7-22-30-40.5-30h-0.8c-9.6,0-18,5.1-22.6,12.8c-4.6-7.6-13-12.8-22.6-12.8h-0.8c-18.5,0-35.1,12.3-40.5,30
				c-0.2,0.7-0.8,1.1-1.5,1.1c0,0,0,0,0,0l-0.4,0c-23.6,0-42.8,19.2-42.8,42.8c0,5.4,1,10.7,2.9,15.6c-12.1,7.9-19.4,21.3-19.4,35.9
				c0,14.7,7.5,28.3,19.8,36.1c-1.9,4.5-3,9.2-3.2,14.1c-0.6,11.6,3.4,22.7,11.3,31.3c7.9,8.6,18.6,13.5,30.2,13.9
				c1.5,0,3,0,4.5-0.1c0.7,0,1.3,0.3,1.6,0.8c7.3,14.1,21.7,22.9,37.6,22.9h0.8c9.6,0,18-5.1,22.6-12.8c4.6,7.6,13,12.8,22.6,12.8
				h0.8c15.9,0,30.3-8.8,37.6-22.9c0.3-0.6,0.9-0.9,1.6-0.8c1.5,0.1,3,0.1,4.5,0.1c11.6-0.3,22.3-5.3,30.2-13.9
				c7.9-8.6,11.9-19.7,11.3-31.3c-0.3-4.9-1.4-9.6-3.2-14.1c12.3-7.8,19.8-21.4,19.8-36.1C344,215.7,336.7,202.2,324.6,194.3z
				 M196.5,342h-0.8c-13.2,0-25.1-7.3-31.2-19c-1.6-3.1-5-5-8.5-4.7c-1.2,0.1-2.5,0.1-3.8,0.1c-9.6-0.3-18.5-4.4-25.1-11.5
				c-6.6-7.2-9.9-16.4-9.4-26c0.3-5,1.6-9.8,3.9-14.3c6.1-11.9,18.3-19.4,31.7-19.4c5.8,0,11.6,1.4,16.7,4.2l3.4-6.4
				c-6.2-3.3-13.1-5-20.1-5c-14.8,0-28.4,7.6-36.2,19.9c-9.9-6.6-15.9-17.6-15.9-29.7c0-11.8,5.8-22.7,15.4-29.4
				c7.7,12.7,21.7,20.7,36.7,20.7c7.2,0,14.3-1.8,20.6-5.3l-3.5-6.3c-5.2,2.9-11.1,4.4-17.1,4.4c-13.8,0-26.1-7.7-32.1-20.1
				c-2.3-4.8-3.5-10.1-3.5-15.5c0-19.6,16-35.6,35.6-35.6l0.3,0c0,0,0.1,0,0.1,0c3.9,0,7.2-2.5,8.4-6.3
				c4.4-14.7,18.2-24.9,33.6-24.9h0.8c9.6,0,17.6,7.1,18.9,16.4c-0.1,0.9-0.1,1.8-0.1,2.7v47.7c-4.2-4.1-9.9-6.6-16.2-6.6v0
				c-9,0-16.4-7.3-16.4-16.4h-7.2c0,13,10.5,23.5,23.5,23.6v0c9,0,16.4,7.3,16.4,16.4v41.7c-11.1,1.9-19.5,11.5-19.6,23.1h0
				c0,9-7.3,16.4-16.4,16.4v7.2c13,0,23.5-10.5,23.6-23.5h0c0-7.6,5.3-14.1,12.3-15.9v78.1c0,0.9,0,1.8,0.1,2.7
				C214.1,334.9,206.1,342,196.5,342z M320.9,259.9c-7.8-12.4-21.4-20-36.2-20c-7,0-14,1.7-20.1,5l3.4,6.4
				c5.1-2.7,10.9-4.2,16.7-4.2c13.4,0,25.6,7.4,31.7,19.4c2.3,4.5,3.6,9.3,3.9,14.3c0.5,9.6-2.8,18.9-9.4,26
				c-6.6,7.2-15.5,11.2-25.1,11.5c-1.3,0-2.5,0-3.8-0.1c-3.5-0.3-6.9,1.6-8.5,4.7c-6,11.7-18,19-31.2,19h-0.8
				c-9.6,0-17.6-7.1-18.9-16.4c0.1-0.9,0.1-1.8,0.1-2.7v-40.7c4.2,3.9,9.8,6.3,15.9,6.3v0c9,0,16.4,7.3,16.4,16.4h7.2
				c0-13-10.5-23.5-23.5-23.6v0c-7.9,0-14.5-5.6-16-13V219c11.1-1.9,19.6-11.5,19.6-23.1h0c0-9,7.3-16.4,16.4-16.4v-7.2
				c-13,0-23.5,10.5-23.6,23.5h0c0,7.7-5.3,14.1-12.4,15.9v-80.5c0-0.9,0-1.8-0.1-2.7c1.3-9.2,9.3-16.4,18.9-16.4h0.8
				c15.3,0,29.1,10.2,33.6,24.9c1.1,3.8,4.5,6.3,8.4,6.3c0,0,0.1,0,0.1,0l0.3,0c19.6,0,35.6,16,35.6,35.6c0,5.4-1.2,10.7-3.5,15.5
				c-6,12.4-18.3,20.1-32.1,20.1c-6,0-11.9-1.5-17.1-4.4l-3.5,6.3c6.3,3.4,13.4,5.3,20.6,5.3c15,0,29-8,36.7-20.7
				c9.6,6.6,15.4,17.6,15.4,29.4C336.8,242.2,330.8,253.3,320.9,259.9z"/>
			<linearGradient id="SVGID_23_" gradientUnits="userSpaceOnUse" x1="350.0332" y1="226.9971" x2="88.0337" y2="226.9971">
				<stop  offset="0.4839" style="stop-color:#F14D5C"/>
				<stop  offset="0.629" style="stop-color:#FDC70C"/>
			</linearGradient>
			<path fill="url(#SVGID_23_)" d="M242.4,104.7c18.5,0,35.1,12.3,40.5,30c0.2,0.7,0.8,1.1,1.5,1.1l0.4,0
				c23.6,0,42.8,19.2,42.8,42.8c0,5.4-1,10.7-2.9,15.6c12.1,7.9,19.4,21.3,19.4,35.9c0,14.7-7.5,28.3-19.8,36.1
				c1.9,4.5,3,9.2,3.2,14.1c0.6,11.6-3.4,22.7-11.3,31.3c-7.9,8.6-18.6,13.5-30.2,13.9c-0.4,0-0.9,0-1.3,0c-1.1,0-2.1,0-3.2-0.1
				c0,0-0.1,0-0.1,0c-0.6,0-1.2,0.3-1.4,0.8c-7.3,14.1-21.7,22.9-37.6,22.9h-0.8c-9.6,0-18-5.1-22.6-12.8
				c-4.6,7.6-13,12.8-22.6,12.8h-0.8c-15.9,0-30.3-8.8-37.6-22.9c-0.3-0.5-0.8-0.8-1.4-0.8c0,0-0.1,0-0.1,0
				c-1.1,0.1-2.1,0.1-3.2,0.1c-0.4,0-0.9,0-1.3,0c-11.6-0.3-22.3-5.3-30.2-13.9c-7.9-8.6-11.9-19.7-11.3-31.3
				c0.3-4.9,1.4-9.6,3.2-14.1c-12.3-7.8-19.8-21.4-19.8-36.1c0-14.5,7.4-28,19.4-35.9c-1.9-5-2.9-10.2-2.9-15.6
				c0-23.6,19.2-42.8,42.8-42.8l0.4,0c0,0,0,0,0,0c0.7,0,1.3-0.5,1.5-1.1c5.3-17.7,22-30,40.5-30h0.8c9.6,0,18,5.1,22.6,12.8
				c4.6-7.6,13-12.8,22.6-12.8H242.4 M153.7,143.1l-0.3,0c-19.6,0-35.6,16-35.6,35.6c0,5.4,1.2,10.7,3.5,15.5
				c6,12.4,18.3,20.1,32.1,20.1c6,0,11.9-1.5,17.1-4.4l3.5,6.3c-6.3,3.4-13.4,5.3-20.6,5.3c-15,0-29-8-36.7-20.7
				c-9.6,6.6-15.4,17.6-15.4,29.4c0,12,6,23.1,15.9,29.7c7.8-12.4,21.4-19.9,36.2-19.9c7,0,14,1.7,20.1,5l-3.4,6.4
				c-5.1-2.7-10.9-4.2-16.7-4.2c-13.4,0-25.6,7.4-31.7,19.4c-2.3,4.5-3.6,9.3-3.9,14.3c-0.5,9.6,2.8,18.9,9.4,26
				c6.6,7.2,15.5,11.3,25.1,11.5c0.4,0,0.7,0,1.1,0c0.9,0,1.8,0,2.7-0.1c0.2,0,0.5,0,0.7,0c3.3,0,6.3,1.8,7.8,4.8
				c6,11.7,18,19,31.2,19h0.8c9.6,0,17.6-7.1,18.9-16.4c-0.1-0.9-0.1-1.8-0.1-2.7v-78.1c-7.1,1.8-12.3,8.2-12.3,15.9h0
				c-0.1,13-10.6,23.5-23.6,23.5v-7.2c9,0,16.4-7.3,16.4-16.4h0c0.1-11.6,8.5-21.2,19.6-23.1v-41.7c0-9-7.3-16.4-16.4-16.4v0
				c-13-0.1-23.5-10.6-23.5-23.6h7.2c0,9,7.3,16.4,16.4,16.4v0c6.3,0,12,2.5,16.2,6.6v-47.7c0-0.9,0-1.8,0.1-2.7
				c-1.3-9.2-9.3-16.4-18.9-16.4h-0.8c-15.3,0-29.1,10.2-33.6,24.9C161,140.6,157.7,143.1,153.7,143.1
				C153.7,143.1,153.7,143.1,153.7,143.1 M222.8,211.6c7.1-1.8,12.4-8.2,12.4-15.9h0c0.1-13,10.6-23.5,23.6-23.5v7.2
				c-9,0-16.4,7.3-16.4,16.4h0c-0.1,11.6-8.5,21.3-19.6,23.1v49.2c1.5,7.4,8.1,13,16,13v0c13,0.1,23.5,10.6,23.5,23.6h-7.2
				c0-9-7.3-16.4-16.4-16.4v0c-6.1,0-11.7-2.4-15.9-6.3v40.7c0,0.9,0,1.8-0.1,2.7c1.3,9.2,9.3,16.4,18.9,16.4h0.8
				c13.2,0,25.1-7.3,31.2-19c1.5-2.9,4.5-4.8,7.8-4.8c0.2,0,0.4,0,0.7,0c0.9,0.1,1.8,0.1,2.7,0.1c0.4,0,0.7,0,1.1,0
				c9.6-0.3,18.5-4.4,25.1-11.5c6.6-7.2,9.9-16.4,9.4-26c-0.3-5-1.6-9.8-3.9-14.3c-6.1-11.9-18.3-19.4-31.7-19.4
				c-5.8,0-11.6,1.4-16.7,4.2l-3.4-6.4c6.2-3.3,13.1-5,20.1-5c14.8,0,28.4,7.6,36.2,20c9.9-6.6,15.9-17.6,15.9-29.7
				c0-11.8-5.8-22.7-15.4-29.4c-7.7,12.7-21.7,20.7-36.7,20.7c-7.2,0-14.3-1.8-20.6-5.3l3.5-6.3c5.2,2.9,11.1,4.4,17.1,4.4
				c13.8,0,26.1-7.7,32.1-20.1c2.3-4.8,3.5-10.1,3.5-15.5c0-19.6-16-35.6-35.6-35.6l-0.3,0c0,0-0.1,0-0.1,0c-3.9,0-7.2-2.5-8.4-6.3
				c-4.4-14.7-18.2-24.9-33.6-24.9h-0.8c-9.6,0-17.6,7.1-18.9,16.4c0.1,0.9,0.1,1.8,0.1,2.7V211.6 M242.4,98.7h-0.8
				c-8.5,0-16.6,3.4-22.6,9.2c-6-5.8-14.1-9.2-22.6-9.2h-0.8c-20,0-38.2,12.7-45.2,31.2c-25.6,1.5-46,22.8-46,48.8
				c0,4.6,0.6,9,1.9,13.4C94.8,201.3,88,215.3,88,230.2c0,15.1,6.9,29.1,18.6,38.4c-1.1,3.7-1.8,7.6-2,11.5
				c-0.7,13.2,3.9,25.9,12.9,35.7c9,9.8,21.2,15.4,34.4,15.8c0.5,0,1,0,1.5,0c0.3,0,0.5,0,0.8,0c8.7,14.7,24.3,23.6,41.5,23.6h0.8
				c8.5,0,16.6-3.4,22.6-9.2c6,5.8,14.1,9.2,22.6,9.2h0.8c17.2,0,32.8-9,41.5-23.6c0.3,0,0.5,0,0.8,0c0.5,0,1,0,1.5,0
				c13.2-0.4,25.4-6,34.4-15.8c9-9.8,13.6-22.5,12.9-35.7c-0.2-3.9-0.9-7.8-2-11.5c11.7-9.2,18.6-23.2,18.6-38.4
				c0-15-6.8-28.9-18.3-38.2c1.2-4.3,1.9-8.8,1.9-13.4c0-26-20.4-47.3-46-48.8C280.5,111.4,262.4,98.7,242.4,98.7L242.4,98.7z
				 M153.7,149.1L153.7,149.1L153.7,149.1c6.6,0,12.3-4.2,14.2-10.5c3.7-12.1,15.1-20.6,27.8-20.6h0.8c6.3,0,11.7,4.5,12.9,10.6
				c-0.1,0.8-0.1,1.7-0.1,2.5v37c-1.4-0.5-2.8-0.9-4.2-1.2v-0.6l-6,0c-5.7,0-10.4-4.7-10.4-10.4v-6h-6h-7.2h-6v6
				c0,14.2,10.1,26.1,23.5,29v0.6l6,0c5.7,0,10.4,4.6,10.4,10.4v37.1c-9.7,3.5-16.8,11.7-18.9,21.7h-0.6l0,6
				c0,5.7-4.7,10.4-10.4,10.4h-6v6v7.2v6h6c14.2,0,26.1-10.1,29-23.5h0.6l0-6c0-0.9,0.1-1.8,0.3-2.7v64.9c0,0.8,0,1.7,0.1,2.5
				c-1.2,6.1-6.6,10.6-12.9,10.6h-0.8c-10.9,0-20.8-6-25.8-15.8c-2.5-4.9-7.6-8-13.2-8c-0.4,0-0.8,0-1.1,0c-0.7,0.1-1.5,0.1-2.2,0.1
				c-0.3,0-0.6,0-0.9,0c-8-0.2-15.4-3.6-20.8-9.6c-5.5-6-8.3-13.7-7.8-21.7c0.2-4.2,1.3-8.2,3.2-11.9c5.1-9.9,15.2-16.1,26.4-16.1
				c4.9,0,9.7,1.2,13.9,3.5l5.3,2.8l2.8-5.3l3.4-6.4l2.8-5.3l-5.3-2.8c-7-3.7-15-5.7-22.9-5.7c-14.6,0-28.1,6.4-37.3,17.3
				c-5.6-5.5-8.8-13-8.8-21c0-7.8,3-15.1,8.3-20.6c9.2,11.2,23.2,17.9,37.8,17.9c8.2,0,16.3-2.1,23.5-6l5.3-2.9l-2.9-5.3l-3.5-6.3
				l-2.9-5.3l-5.3,2.9c-4.3,2.4-9.2,3.6-14.2,3.6c-11.5,0-21.7-6.4-26.7-16.7c-1.9-4-2.9-8.4-2.9-12.9c0-16.3,13.3-29.6,29.6-29.6
				L153.7,149.1L153.7,149.1L153.7,149.1z M228.7,128.6c1.2-6.1,6.6-10.6,12.9-10.6h0.8c12.7,0,24.1,8.5,27.8,20.6
				c1.9,6.3,7.6,10.5,14.1,10.5h0.1l0.4,0c16.3,0,29.6,13.3,29.6,29.6c0,4.5-1,8.9-2.9,12.9c-5,10.3-15.2,16.7-26.7,16.7
				c-5,0-9.9-1.3-14.2-3.6l-5.3-2.9l-2.9,5.3l-3.5,6.3l-2.9,5.3l5.3,2.9c7.1,3.9,15.3,6,23.5,6c14.6,0,28.6-6.7,37.8-17.9
				c5.3,5.5,8.3,12.8,8.3,20.6c0,8-3.2,15.5-8.8,21c-9.2-11-22.7-17.3-37.3-17.3c-8,0-15.9,2-23,5.7l-5.3,2.8l2.8,5.3l3.4,6.4
				l2.8,5.3l5.3-2.8c4.3-2.3,9.1-3.5,13.9-3.5c11.2,0,21.3,6.2,26.4,16.1c1.9,3.7,3,7.7,3.2,11.9c0.4,8-2.3,15.7-7.8,21.7
				c-5.5,6-12.9,9.4-20.8,9.6c-0.3,0-0.6,0-0.9,0c-0.7,0-1.5,0-2.2-0.1c-0.4,0-0.7,0-1.1,0c-5.6,0-10.6,3.1-13.2,8
				c-5,9.7-14.9,15.8-25.8,15.8h-0.8c-6.3,0-11.7-4.5-12.9-10.6c0.1-0.8,0.1-1.7,0.1-2.5v-30.2c1.3,0.5,2.6,0.8,3.9,1.1v0.6l6,0
				c5.7,0,10.4,4.6,10.4,10.4v6h6h7.2h6v-6c0-14.2-10.1-26.1-23.5-29v-0.6l-6,0c-4.7,0-8.8-3.2-10-7.7v-43.9
				c9.7-3.4,16.9-11.7,19-21.8h0.6l0-6c0-5.7,4.6-10.4,10.4-10.4h6v-6v-7.2v-6h-6c-14.2,0-26.1,10.1-29,23.5h-0.6l0,6
				c0,1-0.1,2-0.4,2.9v-67.5C228.8,130.3,228.8,129.4,228.7,128.6L228.7,128.6z"/>
		</g>
	</g>
</g>
</svg>
